<?xml version="1.0" standalone="no"?>
<!DOCTYPE svg PUBLIC "-//W3C//DTD SVG 20010904//EN"
 "http://www.w3.org/TR/2001/REC-SVG-20010904/DTD/svg10.dtd">
<svg version="1.0" xmlns="http://www.w3.org/2000/svg"
 width="500.000000pt" height="500.000000pt" viewBox="0 0 500.000000 500.000000"
 preserveAspectRatio="xMidYMid meet">
<metadata>
Created by potrace 1.14, written by Peter Selinger 2001-2017
</metadata>
<g transform="translate(0.000000,500.000000) scale(0.100000,-0.100000)"
fill="#000000" stroke="none">
<path d="M175 4968 c4 -27 14 -90 20 -118 0 -3 7 -36 14 -74 l14 -70 24 30
c14 16 77 82 140 147 l116 117 -166 0 -166 0 4 -32z"/>
<path d="M934 4933 c8 -82 30 -190 62 -308 31 -111 29 -105 41 -135 6 -14 12
-31 14 -39 3 -7 21 11 43 45 110 167 315 394 354 394 9 0 35 -5 57 -10 52 -12
90 -18 145 -26 25 -3 47 -8 48 -9 2 -2 19 -50 38 -107 56 -168 220 -485 232
-448 9 29 97 206 135 273 39 68 56 74 57 22 0 -11 14 -58 30 -105 16 -47 30
-92 30 -100 0 -9 -12 -23 -28 -32 -86 -51 -171 -155 -212 -259 -37 -94 -33
-260 9 -372 8 -21 4 -26 -43 -50 -80 -42 -137 -101 -151 -158 -4 -17 -31 -39
-88 -74 -52 -32 -92 -65 -112 -93 -16 -23 -52 -72 -79 -109 -27 -36 -63 -91
-81 -123 -41 -72 -110 -256 -125 -335 -19 -93 -15 -225 9 -287 5 -13 12 -41
15 -62 3 -21 23 -83 45 -139 21 -56 38 -103 37 -103 -1 -1 -32 -4 -69 -8 -78
-7 -187 -40 -203 -62 -16 -20 -5 -67 13 -60 35 14 234 56 262 56 18 0 31 -5
31 -12 0 -15 -100 -121 -136 -145 -15 -10 -60 -19 -112 -24 -108 -10 -136 -16
-176 -36 -37 -19 -86 -63 -86 -78 0 -6 -9 -17 -20 -25 -16 -11 -20 -26 -20
-71 0 -49 5 -62 34 -101 39 -50 67 -61 134 -49 32 6 42 5 42 -5 0 -7 10 -23
23 -35 18 -17 30 -20 69 -15 l48 5 -24 -26 c-53 -56 -60 -182 -15 -247 52 -77
141 -78 281 -4 55 29 104 72 181 156 43 48 40 48 132 -16 67 -46 102 -79 134
-127 32 -46 67 -133 77 -187 6 -35 4 -37 -35 -58 -23 -11 -47 -29 -53 -40 -13
-20 -27 -20 -970 -20 l-958 0 0 -353 0 -352 1065 0 c586 0 1065 -2 1065 -4 0
-9 -46 -79 -77 -118 -49 -61 -63 -113 -30 -113 13 1 88 98 137 178 17 28 37
53 43 53 7 1 637 2 1402 3 l1390 1 3 353 2 352 -968 0 -967 0 -10 22 c-6 15
-29 30 -61 41 -74 27 -82 46 -71 187 3 41 9 120 13 175 3 55 8 103 11 108 6
10 23 9 23 -3 0 -14 70 -121 130 -199 50 -64 83 -91 96 -78 11 10 -28 82 -66
124 -22 23 -59 71 -81 106 l-40 62 28 6 c34 7 87 34 128 65 17 12 58 39 93 59
43 25 68 47 79 71 14 29 19 32 32 20 9 -7 38 -26 65 -41 26 -16 68 -50 93 -76
48 -52 175 -131 233 -146 44 -12 96 1 110 27 10 18 13 18 53 4 23 -9 55 -13
72 -9 35 6 105 79 106 110 0 11 2 30 5 43 5 30 -40 117 -82 157 -35 33 -169
85 -219 85 -49 0 -93 38 -164 143 l-33 50 17 61 c9 33 30 102 46 153 16 50 29
105 29 121 l0 30 59 -3 c80 -5 133 21 155 76 32 79 14 180 -41 235 -34 35
-126 74 -172 74 l-29 0 1 73 c0 55 -5 82 -22 115 -12 23 -19 42 -16 42 9 0
-12 35 -49 79 -20 23 -41 61 -48 83 -8 27 -22 47 -40 57 -15 9 -28 19 -28 22
0 4 26 17 57 30 48 19 74 23 158 22 55 0 123 -7 150 -15 64 -17 85 -13 85 17
0 27 -35 50 -90 60 -19 3 -37 8 -41 11 -15 9 -164 5 -210 -5 -37 -8 -103 -34
-151 -59 -4 -2 -16 14 -27 36 -24 47 -68 86 -116 103 -24 9 -34 18 -30 29 2 8
40 148 84 310 44 162 92 333 105 380 25 84 25 84 20 29 -5 -51 -4 -57 15 -62
13 -3 21 -1 20 6 -4 33 3 39 15 12 l13 -30 21 40 c12 22 21 34 22 28 0 -16 40
-17 40 -2 0 6 -5 19 -11 31 -8 14 -7 28 2 49 12 30 32 34 80 14 11 -4 18 0 22
14 3 15 0 21 -11 21 -8 0 -13 2 -10 5 7 7 27 11 102 20 l59 8 -81 78 c-79 78
-80 79 -72 116 5 20 6 42 4 47 -3 6 28 -24 70 -66 42 -43 78 -78 80 -78 4 0
38 92 41 110 1 3 8 30 17 60 17 60 45 187 52 235 3 17 8 49 11 73 l6 42 -152
0 c-121 0 -165 -4 -218 -19 -73 -22 -364 -87 -426 -96 -22 -3 -65 -10 -95 -15
-73 -12 -122 -18 -200 -25 -36 -3 -81 -8 -100 -10 -107 -13 -516 -23 -526 -12
-2 2 15 26 40 53 54 61 116 93 206 107 67 10 90 8 295 -26 5 -1 11 8 13 21 l3
22 -246 0 -246 0 -55 -55 c-30 -30 -61 -69 -69 -88 -13 -31 -17 -33 -57 -31
-80 4 -237 15 -260 19 -13 2 -45 6 -73 10 -75 9 -274 42 -325 54 -25 5 -58 12
-75 15 -16 3 -92 22 -168 41 -105 27 -158 35 -224 35 l-85 0 6 -67z m2543 -70
c25 -27 70 -73 100 -104 l54 -56 -52 -27 -52 -27 -59 31 c-33 18 -75 40 -94
51 -41 23 -41 24 -18 -105 l15 -90 -75 -74 c-42 -42 -75 -77 -73 -78 1 -2 23
-6 49 -9 25 -4 68 -10 95 -14 l48 -7 -42 -22 c-24 -12 -43 -27 -43 -32 0 -20
21 -20 61 0 24 11 43 19 45 17 1 -1 -120 -84 -270 -184 -149 -101 -343 -231
-431 -290 -123 -83 -168 -108 -195 -109 -19 -1 -55 -5 -80 -10 -45 -9 -114
-10 -220 -3 -30 1 -89 0 -132 -5 l-76 -7 -13 38 c-17 51 -19 176 -4 233 33
124 110 225 231 301 l31 19 76 -73 c85 -82 147 -120 233 -142 100 -25 178 -4
210 58 23 43 23 151 1 194 -62 120 -243 160 -431 96 l-88 -30 -32 66 c-28 60
-31 75 -31 166 0 87 3 104 22 130 l21 29 157 1 158 1 45 -70 c25 -39 92 -145
149 -236 58 -91 108 -169 113 -173 18 -20 153 267 206 440 28 91 30 93 64 99
19 3 69 12 110 21 41 8 89 17 105 20 17 3 32 7 34 9 13 13 38 -1 78 -43z
m-790 -506 c68 -36 94 -127 49 -172 -66 -66 -223 -28 -348 86 -36 32 -50 51
-43 57 6 6 42 20 80 30 87 25 214 24 262 -1z m1092 -1641 c49 -17 94 -76 94
-122 0 -55 -37 -86 -104 -88 l-54 -1 -1 40 c-3 68 -11 129 -23 158 -10 26 -9
27 22 26 17 0 48 -6 66 -13z m-2120 -958 c11 -11 38 -33 60 -47 l40 -27 -23
-67 c-12 -37 -25 -70 -29 -73 -3 -3 -34 4 -69 16 -39 14 -90 23 -135 24 -40 0
-73 4 -73 7 0 3 10 11 23 18 12 6 56 48 97 91 41 44 78 79 82 80 4 0 16 -10
27 -22z m322 -204 c47 -13 59 -21 60 -38 5 -84 7 -122 13 -206 16 -225 16
-230 5 -180 -5 25 -11 52 -12 60 -6 30 -46 111 -74 147 -35 47 -92 99 -154
140 -26 18 -50 36 -53 41 -5 8 20 118 30 134 3 4 32 -13 65 -37 36 -26 84 -51
120 -61z m-378 -75 c26 -7 47 -18 47 -24 0 -16 -99 -109 -149 -140 -56 -34
-155 -56 -196 -42 -69 23 -87 66 -55 132 22 46 56 73 105 86 41 11 189 3 248
-12z m852 -34 c65 -10 115 -11 142 -2 19 7 23 2 37 -45 9 -29 24 -95 33 -146
14 -80 15 -97 3 -115 -38 -60 -57 -113 -59 -169 -1 -16 -14 -18 -121 -18
l-120 0 0 43 c0 42 -38 138 -59 151 -6 4 -9 17 -6 29 2 12 7 40 10 61 5 35 39
182 50 213 2 7 12 11 22 9 10 -2 41 -7 68 -11z"/>
<path d="M4519 4963 c29 -21 61 -42 70 -48 45 -28 116 -80 119 -87 7 -15 21
-8 16 7 -4 8 -7 48 -8 88 l-2 72 -124 3 -125 2 54 -37z"/>
<path d="M395 3517 c4 -23 8 -49 10 -57 2 -8 6 -38 10 -66 l7 -51 -77 -75 -78
-75 108 -16 c60 -10 109 -18 111 -20 1 -1 23 -45 49 -97 l48 -95 47 99 c42 89
50 99 76 102 16 1 64 8 108 15 l79 12 -77 75 c-42 41 -76 80 -76 86 0 6 7 49
15 96 20 115 21 113 -17 92 -18 -10 -61 -33 -95 -51 l-61 -33 -97 51 -97 50 7
-42z"/>
<path d="M4716 3229 l-69 -37 -63 35 c-69 37 -89 37 -74 -2 5 -13 9 -32 9 -42
0 -10 3 -31 6 -48 6 -27 0 -36 -51 -85 l-58 -55 79 -13 c44 -7 80 -14 81 -15
1 -1 17 -33 37 -72 l35 -69 36 72 c20 39 41 73 46 73 6 1 13 2 18 3 4 1 36 6
71 10 l63 8 -59 62 -60 61 14 70 c7 38 12 72 11 75 -2 3 -34 -11 -72 -31z"/>
<path d="M243 1638 c3 -13 11 -61 18 -107 l13 -83 -77 -74 c-43 -41 -74 -74
-70 -75 5 0 19 -2 33 -5 14 -2 56 -9 94 -14 38 -6 73 -13 78 -16 6 -4 26 -41
47 -83 20 -42 41 -82 45 -90 7 -10 23 12 58 82 35 72 53 97 68 98 11 1 23 2
28 3 4 1 34 5 67 10 106 13 105 10 21 92 l-76 75 6 47 c3 26 7 49 9 52 9 16
15 112 7 109 -5 -2 -49 -24 -96 -49 l-86 -45 -90 48 c-50 26 -93 47 -96 47 -3
0 -4 -10 -1 -22z"/>
</g>
</svg>
